PathFileType	4	(X/Y/Z)	RBDS011static.trc
DataRate	CameraRate	NumFrames	NumMarkers	Units	OrigDataRate	OrigDataStartFrame	OrigNumFrames
150.000000	150.000000	4	48	mm	150.000000	75	150
Frame#	Time	L.Ankle			L.Ankle.Medial			L.ASIS			L.GTR			L.Heel.Bottom			L.Heel.Lateral			L.Heel.Top			L.HF			L.Iliac.Crest			L.Knee			L.Knee.Medial			L.MT1			L.MT2			L.MT5			L.PSIS			L.Shank.Bottom.Lateral			L.Shank.Bottom.Medial			L.Shank.Top.Lateral			L.Shank.Top.Medial			L.Thigh.Bottom.Lateral			L.Thigh.Bottom.Medial			L.Thigh.Top.Lateral			L.Thigh.Top.Medial			L.TT			R.Ankle			R.Ankle.Medial			R.ASIS			R.GTR			R.Heel.Bottom			R.Heel.Lateral			R.Heel.Top			R.HF			R.Iliac.Crest			R.Knee			R.Knee.Medial			R.MT1			R.MT2			R.MT5			R.PSIS			R.Shank.Bottom.Lateral			R.Shank.Bottom.Medial			R.Shank.Top.Lateral			R.Shank.Top.Medial			R.Thigh.Bottom.Lateral			R.Thigh.Bottom.Medial			R.Thigh.Top.Lateral			R.Thigh.Top.Medial			R.TT			
		X1	Y1	Z1	X2	Y2	Z2	X3	Y3	Z3	X4	Y4	Z4	X5	Y5	Z5	X6	Y6	Z6	X7	Y7	Z7	X8	Y8	Z8	X9	Y9	Z9	X10	Y10	Z10	X11	Y11	Z11	X12	Y12	Z12	X13	Y13	Z13	X14	Y14	Z14	X15	Y15	Z15	X16	Y16	Z16	X17	Y17	Z17	X18	Y18	Z18	X19	Y19	Z19	X20	Y20	Z20	X21	Y21	Z21	X22	Y22	Z22	X23	Y23	Z23	X24	Y24	Z24	X25	Y25	Z25	X26	Y26	Z26	X27	Y27	Z27	X28	Y28	Z28	X29	Y29	Z29	X30	Y30	Z30	X31	Y31	Z31	X32	Y32	Z32	X33	Y33	Z33	X34	Y34	Z34	X35	Y35	Z35	X36	Y36	Z36	X37	Y37	Z37	X38	Y38	Z38	X39	Y39	Z39	X40	Y40	Z40	X41	Y41	Z41	X42	Y42	Z42	X43	Y43	Z43	X44	Y44	Z44	X45	Y45	Z45	X46	Y46	Z46	X47	Y47	Z47	X48	Y48	Z48	

76	0.5	714.0072021484375	107.4170379638672	1037.21044921875	735.4903564453125	120.7990875244141	1120.482177734375	881.0717163085938	1028.958984375	1087.446899414063	822.61474609375	919.8538818359375	1032.783569335938	639.000244140625	42.61928176879883	1083.879760742188	663.3755493164063	57.26049423217773	1044.8896484375	649.6578979492188	91.29524230957031	1085.560546875	751.7673950195313	471.2146301269531	1035.260498046875	810.0572509765625	1089.3193359375	1049.661254882813	757.0240478515625	537.635986328125	1040.454467773438	761.7161254882813	517.8114013671875	1161.691162109375	864.845703125	54.45354080200195	1124.950561523438	876.5928344726563	66.33083343505859	1077.384033203125	836.2613525390625	49.43249130249023	1009.171325683594	706.6229248046875	1043.132446289063	1151.551391601563	707.5735473632813	188.953857421875	1035.15966796875	672.6694946289063	193.06103515625	1077.747802734375	705.1077270507813	268.9686584472656	1026.220336914063	672.5736694335938	273.60107421875	1069.413696289063	778.9776000976563	646.3827514648438	1026.276489257813	717.8861083984375	647.1737060546875	1066.311401367188	772.8883666992188	756.5655517578125	1021.283813476563	718.7902221679688	757.74267578125	1064.20654296875	813.715087890625	455.9851379394531	1080.707641601563	714.2288818359375	107.8206939697266	1416.314453125	736.492431640625	126.0318832397461	1334.021606445313	863.1470947265625	1033.149780273438	1342.266967773438	802.4559936523438	924.6159057617188	1396.760620117188	640.0426025390625	43.81552505493164	1374.716552734375	666.6910400390625	64.2593994140625	1414.715209960938	650.7969360351563	93.69110107421875	1373.691162109375	750.57373046875	476.6272583007813	1408.773559570313	796.8369750976563	1081.563598632813	1368.293701171875	759.9754638671875	538.9940185546875	1402.335327148438	764.3604736328125	523.2190551757813	1280.193725585938	861.8359985351563	57.81321716308594	1327.247436523438	870.498046875	71.51095581054688	1372.985107421875	841.9487915039063	49.24752044677734	1444.394165039063	699.1664428710938	1046.711059570313	1253.281005859375	701.3009643554688	182.2043304443359	1414.12646484375	669.384521484375	190.6667327880859	1374.973876953125	705.3733520507813	266.4696655273438	1425.288696289063	671.3065795898438	270.0946350097656	1383.873779296875	758.9157104492188	655.2661743164063	1407.442138671875	706.8544311523438	655.38330078125	1354.769287109375	754.238037109375	764.7954711914063	1408.485473632813	706.0709838867188	765.9473266601563	1358.90771484375	812.037841796875	460.3670654296875	1371.587646484375	
77	0.5066666666666667	714.0087890625	107.4054794311523	1037.203369140625	735.4877319335938	120.7953414916992	1120.471435546875	881.0549926757813	1028.963012695313	1087.42529296875	822.6036987304688	919.8538818359375	1032.74853515625	639.00537109375	42.60421752929688	1083.884765625	663.3878784179688	57.25027465820313	1044.893432617188	649.663818359375	91.28778076171875	1085.561889648438	751.7814331054688	471.207763671875	1035.229370117188	810.04443359375	1089.30419921875	1049.626831054688	757.02587890625	537.622802734375	1040.438354492188	761.7222900390625	517.8085327148438	1161.667724609375	864.85888671875	54.46016311645508	1124.95166015625	876.5986328125	66.32561492919922	1077.387329101563	836.2653198242188	49.42378234863281	1009.171936035156	706.5982666015625	1043.128540039063	1151.517211914063	707.5797729492188	188.9508972167969	1035.146240234375	672.6649780273438	193.0500793457031	1077.751708984375	705.1110229492188	268.9608459472656	1026.216064453125	672.5724487304688	273.5957641601563	1069.4052734375	778.9783325195313	646.3760375976563	1026.256469726563	717.8804321289063	647.170654296875	1066.289428710938	772.8812866210938	756.5589599609375	1021.248168945313	718.7817993164063	757.7409057617188	1064.1728515625	813.7102661132813	455.9802551269531	1080.691162109375	714.1857299804688	107.7318496704102	1416.029541015625	736.4981079101563	126.0244216918945	1334.02099609375	863.117431640625	1033.138061523438	1342.228393554688	802.4358520507813	924.6088256835938	1396.729736328125	640.0424194335938	43.81405258178711	1374.72705078125	666.690185546875	64.24939727783203	1414.718383789063	650.801025390625	93.68324279785156	1373.690185546875	750.5632934570313	476.6188049316406	1408.747802734375	796.8018798828125	1081.558837890625	1368.265258789063	759.9542846679688	538.9876708984375	1402.314575195313	764.3472900390625	523.2183837890625	1280.18115234375	861.8412475585938	57.80999755859375	1327.24609375	870.499755859375	71.51346588134766	1372.976440429688	841.9480590820313	49.23748016357422	1444.3837890625	699.139404296875	1046.699340820313	1253.253662109375	701.3001708984375	182.1963653564453	1414.122314453125	669.38037109375	190.6580200195313	1374.982421875	705.3681640625	266.4675598144531	1425.278930664063	671.2926635742188	270.0818481445313	1383.876708984375	758.883544921875	655.2618408203125	1407.425537109375	706.8359375	655.3788452148438	1354.729858398438	754.2103881835938	764.7914428710938	1408.4638671875	706.0490112304688	765.9390869140625	1358.861328125	812.0264282226563	460.3666687011719	1371.55859375	
78	0.5133333333333334	714.0053100585938	107.4071350097656	1037.209106445313	735.4844970703125	120.7998046875	1120.482299804688	881.0675048828125	1029.007690429688	1087.502075195313	822.599365234375	919.8564453125	1032.726928710938	639.0032958984375	42.60227584838867	1083.8798828125	663.3785400390625	57.25092315673828	1044.890747070313	649.6619262695313	91.28585052490234	1085.5673828125	751.7760620117188	471.20263671875	1035.224609375	810.0233764648438	1089.304443359375	1049.60791015625	757.0244140625	537.6204223632813	1040.425170898438	761.7132568359375	517.8096923828125	1161.651123046875	864.855712890625	54.4527473449707	1124.948608398438	876.5958862304688	66.33009338378906	1077.385375976563	836.2694091796875	49.42971420288086	1009.176574707031	706.5698852539063	1043.121948242188	1151.48193359375	707.580322265625	188.9477233886719	1035.157592773438	672.66796875	193.0511169433594	1077.7392578125	705.115966796875	268.9527587890625	1026.203857421875	672.5711059570313	273.5892639160156	1069.396362304688	778.9735107421875	646.3826904296875	1026.235107421875	717.8727416992188	647.1713256835938	1066.266235351563	772.87353515625	756.5538330078125	1021.221252441406	718.7676391601563	757.7354125976563	1064.142333984375	813.7117919921875	455.9752807617188	1080.681030273438	714.1945190429688	107.7259368896484	1416.035766601563	736.4912719726563	126.0178756713867	1334.020141601563	863.0872802734375	1033.1416015625	1342.207275390625	802.4114379882813	924.609375	1396.704711914063	640.0382080078125	43.81304550170898	1374.720581054688	666.6917114257813	64.25355529785156	1414.728637695313	650.8006591796875	93.67314147949219	1373.686767578125	750.5531616210938	476.6242065429688	1408.722045898438	796.7739868164063	1081.544921875	1368.23046875	759.9375	538.974365234375	1402.285278320313	764.334228515625	523.2125244140625	1280.158569335938	861.8394165039063	57.81302642822266	1327.25390625	870.497802734375	71.51895904541016	1372.97900390625	841.9431762695313	49.23752212524414	1444.385620117188	699.1150512695313	1046.690307617188	1253.20849609375	701.2940063476563	182.1969909667969	1414.130737304688	669.3754272460938	190.6530151367188	1374.9775390625	705.3555297851563	266.4704284667969	1425.278442382813	671.2935791015625	270.0686950683594	1383.872192382813	758.8591918945313	655.260986328125	1407.400146484375	706.818359375	655.3731079101563	1354.7080078125	754.1880493164063	764.7919311523438	1408.431762695313	706.0270385742188	765.9286499023438	1358.834106445313	812.0189208984375	460.3668212890625	1371.542724609375	
79	0.52	714.0010375976563	107.4050598144531	1037.207153320313	735.4866943359375	120.794548034668	1120.484497070313	881.0484619140625	1029.006591796875	1087.477905273438	822.5272216796875	919.8350219726563	1032.51416015625	639.0034790039063	42.60354232788086	1083.892700195313	663.3861694335938	57.24644470214844	1044.894409179688	649.6592407226563	91.27396392822266	1085.569458007813	751.787841796875	471.1939086914063	1035.201049804688	809.9955444335938	1089.31298828125	1049.575439453125	757.0219116210938	537.6107788085938	1040.40869140625	761.6969604492188	517.8209838867188	1161.641845703125	864.8504638671875	54.4553108215332	1124.953247070313	876.5989379882813	66.33604431152344	1077.3837890625	836.2694091796875	49.42880630493164	1009.177062988281	706.552734375	1043.115844726563	1151.448120117188	707.5842895507813	188.9375610351563	1035.142822265625	672.6700439453125	193.0379791259766	1077.732543945313	705.1235961914063	268.9411926269531	1026.197021484375	672.5718994140625	273.5877380371094	1069.38525390625	778.9691772460938	646.373779296875	1026.21923828125	717.8694458007813	647.1642456054688	1066.237426757813	772.8637084960938	756.55126953125	1021.197875976563	718.76220703125	757.7348022460938	1064.09716796875	813.7142944335938	455.9706420898438	1080.671630859375	714.1777954101563	107.7097396850586	1416.03173828125	736.4927978515625	126.0199966430664	1334.021728515625	863.0556030273438	1033.133544921875	1342.18115234375	802.3732299804688	924.6016235351563	1396.66650390625	640.0427856445313	43.80331420898438	1374.727905273438	666.6915893554688	64.24552917480469	1414.722045898438	650.8012084960938	93.66250610351563	1373.691040039063	750.5297241210938	476.6146545410156	1408.718139648438	796.7396240234375	1081.542358398438	1368.214233398438	759.9218139648438	538.9846801757813	1402.265991210938	764.332275390625	523.2044677734375	1280.1435546875	861.8309936523438	57.82195663452148	1327.247680664063	870.4967041015625	71.51060485839844	1372.986206054688	841.93896484375	49.24548721313477	1444.389404296875	699.08544921875	1046.67333984375	1253.174194335938	701.2926635742188	182.1950378417969	1414.130981445313	669.3732299804688	190.6415252685547	1374.979125976563	705.3516235351563	266.4633483886719	1425.2734375	671.2869873046875	270.068603515625	1383.870239257813	758.8387451171875	655.25732421875	1407.377197265625	706.8018188476563	655.3655395507813	1354.6767578125	754.1533813476563	764.783935546875	1408.4013671875	706.0071411132813	765.9290161132813	1358.798828125	812.0040283203125	460.3625793457031	1371.531982421875	
